<mxfile host="app.diagrams.net" modified="2022-05-24T06:28:23.272Z" agent="5.0 (Macintosh; Intel Mac OS X 10_15_7) AppleWebKit/537.36 (KHTML, like Gecko) Chrome/101.0.4951.64 Safari/537.36" etag="vOrm7Zc8DqCV6u2PECpb" version="17.4.0" type="github">
  <diagram id="wHi7M4M5DRVx-HxcvsRZ" name="Page-1">
    <mxGraphModel dx="2864" dy="1134" grid="1" gridSize="10" guides="1" tooltips="1" connect="1" arrows="1" fold="1" page="1" pageScale="1" pageWidth="827" pageHeight="1169" math="0" shadow="0">
      <root>
        <mxCell id="0" />
        <mxCell id="1" parent="0" />
        <mxCell id="syqivPkIFeEdkYDiHq19-5" value="" style="edgeStyle=orthogonalEdgeStyle;rounded=0;orthogonalLoop=1;jettySize=auto;html=1;" parent="1" source="syqivPkIFeEdkYDiHq19-1" target="syqivPkIFeEdkYDiHq19-4" edge="1">
          <mxGeometry relative="1" as="geometry" />
        </mxCell>
        <mxCell id="syqivPkIFeEdkYDiHq19-8" value="init&lt;br&gt;" style="edgeLabel;html=1;align=center;verticalAlign=middle;resizable=0;points=[];" parent="syqivPkIFeEdkYDiHq19-5" vertex="1" connectable="0">
          <mxGeometry x="-0.1" y="1" relative="1" as="geometry">
            <mxPoint as="offset" />
          </mxGeometry>
        </mxCell>
        <mxCell id="syqivPkIFeEdkYDiHq19-12" value="Y" style="edgeLabel;html=1;align=center;verticalAlign=middle;resizable=0;points=[];" parent="syqivPkIFeEdkYDiHq19-5" vertex="1" connectable="0">
          <mxGeometry x="0.7368" y="1" relative="1" as="geometry">
            <mxPoint as="offset" />
          </mxGeometry>
        </mxCell>
        <mxCell id="syqivPkIFeEdkYDiHq19-10" value="" style="edgeStyle=orthogonalEdgeStyle;rounded=0;orthogonalLoop=1;jettySize=auto;html=1;" parent="1" source="syqivPkIFeEdkYDiHq19-1" target="syqivPkIFeEdkYDiHq19-9" edge="1">
          <mxGeometry relative="1" as="geometry" />
        </mxCell>
        <mxCell id="syqivPkIFeEdkYDiHq19-11" value="init" style="edgeLabel;html=1;align=center;verticalAlign=middle;resizable=0;points=[];" parent="syqivPkIFeEdkYDiHq19-10" vertex="1" connectable="0">
          <mxGeometry x="-0.1143" y="1" relative="1" as="geometry">
            <mxPoint as="offset" />
          </mxGeometry>
        </mxCell>
        <mxCell id="syqivPkIFeEdkYDiHq19-1" value="激活模块" style="whiteSpace=wrap;html=1;" parent="1" vertex="1">
          <mxGeometry x="90" y="40" width="120" height="60" as="geometry" />
        </mxCell>
        <mxCell id="syqivPkIFeEdkYDiHq19-20" value="" style="edgeStyle=orthogonalEdgeStyle;rounded=0;orthogonalLoop=1;jettySize=auto;html=1;" parent="1" source="syqivPkIFeEdkYDiHq19-2" edge="1">
          <mxGeometry relative="1" as="geometry">
            <mxPoint x="600" y="830" as="targetPoint" />
            <Array as="points">
              <mxPoint x="600" y="620" />
            </Array>
          </mxGeometry>
        </mxCell>
        <mxCell id="syqivPkIFeEdkYDiHq19-2" value="百度激活云端" style="whiteSpace=wrap;html=1;" parent="1" vertex="1">
          <mxGeometry x="540" y="40" width="120" height="60" as="geometry" />
        </mxCell>
        <mxCell id="syqivPkIFeEdkYDiHq19-47" value="" style="edgeStyle=orthogonalEdgeStyle;rounded=0;orthogonalLoop=1;jettySize=auto;html=1;" parent="1" source="syqivPkIFeEdkYDiHq19-3" edge="1">
          <mxGeometry relative="1" as="geometry">
            <mxPoint x="-190" y="750" as="targetPoint" />
          </mxGeometry>
        </mxCell>
        <mxCell id="syqivPkIFeEdkYDiHq19-3" value="激活client" style="whiteSpace=wrap;html=1;" parent="1" vertex="1">
          <mxGeometry x="-250" y="40" width="120" height="60" as="geometry" />
        </mxCell>
        <mxCell id="syqivPkIFeEdkYDiHq19-7" value="" style="edgeStyle=orthogonalEdgeStyle;rounded=0;orthogonalLoop=1;jettySize=auto;html=1;" parent="1" source="syqivPkIFeEdkYDiHq19-4" target="syqivPkIFeEdkYDiHq19-6" edge="1">
          <mxGeometry relative="1" as="geometry" />
        </mxCell>
        <mxCell id="syqivPkIFeEdkYDiHq19-22" value="" style="edgeStyle=orthogonalEdgeStyle;rounded=0;orthogonalLoop=1;jettySize=auto;html=1;" parent="1" source="syqivPkIFeEdkYDiHq19-4" target="syqivPkIFeEdkYDiHq19-16" edge="1">
          <mxGeometry relative="1" as="geometry" />
        </mxCell>
        <mxCell id="syqivPkIFeEdkYDiHq19-23" value="N" style="edgeLabel;html=1;align=center;verticalAlign=middle;resizable=0;points=[];" parent="syqivPkIFeEdkYDiHq19-22" vertex="1" connectable="0">
          <mxGeometry y="-1" relative="1" as="geometry">
            <mxPoint as="offset" />
          </mxGeometry>
        </mxCell>
        <mxCell id="syqivPkIFeEdkYDiHq19-25" value="" style="edgeStyle=orthogonalEdgeStyle;rounded=0;orthogonalLoop=1;jettySize=auto;html=1;exitX=1;exitY=1;exitDx=0;exitDy=0;entryX=0;entryY=1;entryDx=0;entryDy=0;" parent="1" source="syqivPkIFeEdkYDiHq19-1" target="syqivPkIFeEdkYDiHq19-2" edge="1">
          <mxGeometry relative="1" as="geometry">
            <mxPoint x="590" y="320" as="targetPoint" />
          </mxGeometry>
        </mxCell>
        <mxCell id="syqivPkIFeEdkYDiHq19-4" value="产线激活" style="whiteSpace=wrap;html=1;" parent="1" vertex="1">
          <mxGeometry x="90" y="290" width="120" height="60" as="geometry" />
        </mxCell>
        <mxCell id="syqivPkIFeEdkYDiHq19-30" value="" style="edgeStyle=orthogonalEdgeStyle;rounded=0;orthogonalLoop=1;jettySize=auto;html=1;" parent="1" source="syqivPkIFeEdkYDiHq19-6" target="syqivPkIFeEdkYDiHq19-29" edge="1">
          <mxGeometry relative="1" as="geometry" />
        </mxCell>
        <mxCell id="syqivPkIFeEdkYDiHq19-53" value="" style="edgeStyle=orthogonalEdgeStyle;rounded=0;orthogonalLoop=1;jettySize=auto;html=1;" parent="1" source="syqivPkIFeEdkYDiHq19-6" edge="1">
          <mxGeometry relative="1" as="geometry">
            <mxPoint x="-180" y="430" as="targetPoint" />
          </mxGeometry>
        </mxCell>
        <mxCell id="syqivPkIFeEdkYDiHq19-6" value="试用期" style="whiteSpace=wrap;html=1;" parent="1" vertex="1">
          <mxGeometry x="90" y="400" width="120" height="60" as="geometry" />
        </mxCell>
        <mxCell id="syqivPkIFeEdkYDiHq19-9" value="注册网络监听" style="rhombus;whiteSpace=wrap;html=1;" parent="1" vertex="1">
          <mxGeometry x="90" y="170" width="120" height="80" as="geometry" />
        </mxCell>
        <mxCell id="syqivPkIFeEdkYDiHq19-16" value="retry 3 times" style="rhombus;whiteSpace=wrap;html=1;" parent="1" vertex="1">
          <mxGeometry x="-70" y="330" width="120" height="80" as="geometry" />
        </mxCell>
        <mxCell id="syqivPkIFeEdkYDiHq19-32" value="" style="edgeStyle=orthogonalEdgeStyle;rounded=0;orthogonalLoop=1;jettySize=auto;html=1;" parent="1" source="syqivPkIFeEdkYDiHq19-29" target="syqivPkIFeEdkYDiHq19-31" edge="1">
          <mxGeometry relative="1" as="geometry" />
        </mxCell>
        <mxCell id="syqivPkIFeEdkYDiHq19-34" value="打开" style="edgeStyle=orthogonalEdgeStyle;rounded=0;orthogonalLoop=1;jettySize=auto;html=1;" parent="1" source="syqivPkIFeEdkYDiHq19-29" target="syqivPkIFeEdkYDiHq19-33" edge="1">
          <mxGeometry relative="1" as="geometry" />
        </mxCell>
        <mxCell id="syqivPkIFeEdkYDiHq19-55" value="" style="edgeStyle=orthogonalEdgeStyle;rounded=0;orthogonalLoop=1;jettySize=auto;html=1;" parent="1" source="syqivPkIFeEdkYDiHq19-29" edge="1">
          <mxGeometry relative="1" as="geometry">
            <mxPoint x="-190" y="530" as="targetPoint" />
          </mxGeometry>
        </mxCell>
        <mxCell id="syqivPkIFeEdkYDiHq19-29" value="试用期到期" style="whiteSpace=wrap;html=1;" parent="1" vertex="1">
          <mxGeometry x="90" y="500" width="120" height="60" as="geometry" />
        </mxCell>
        <mxCell id="syqivPkIFeEdkYDiHq19-39" value="" style="edgeStyle=orthogonalEdgeStyle;rounded=0;orthogonalLoop=1;jettySize=auto;html=1;" parent="1" source="syqivPkIFeEdkYDiHq19-31" target="syqivPkIFeEdkYDiHq19-38" edge="1">
          <mxGeometry relative="1" as="geometry" />
        </mxCell>
        <mxCell id="syqivPkIFeEdkYDiHq19-57" value="" style="edgeStyle=orthogonalEdgeStyle;rounded=0;orthogonalLoop=1;jettySize=auto;html=1;" parent="1" source="syqivPkIFeEdkYDiHq19-31" edge="1">
          <mxGeometry relative="1" as="geometry">
            <mxPoint x="-180" y="650" as="targetPoint" />
          </mxGeometry>
        </mxCell>
        <mxCell id="syqivPkIFeEdkYDiHq19-31" value="用户激活" style="whiteSpace=wrap;html=1;" parent="1" vertex="1">
          <mxGeometry x="90" y="620" width="120" height="60" as="geometry" />
        </mxCell>
        <mxCell id="syqivPkIFeEdkYDiHq19-36" value="关闭，恢复出厂设置" style="edgeStyle=orthogonalEdgeStyle;rounded=0;orthogonalLoop=1;jettySize=auto;html=1;" parent="1" source="syqivPkIFeEdkYDiHq19-33" edge="1">
          <mxGeometry relative="1" as="geometry">
            <mxPoint x="150" y="620" as="targetPoint" />
            <Array as="points">
              <mxPoint x="350" y="620" />
            </Array>
          </mxGeometry>
        </mxCell>
        <mxCell id="syqivPkIFeEdkYDiHq19-33" value="4s店展车" style="whiteSpace=wrap;html=1;" parent="1" vertex="1">
          <mxGeometry x="290" y="500" width="120" height="60" as="geometry" />
        </mxCell>
        <mxCell id="syqivPkIFeEdkYDiHq19-41" value="" style="edgeStyle=orthogonalEdgeStyle;rounded=0;orthogonalLoop=1;jettySize=auto;html=1;" parent="1" source="syqivPkIFeEdkYDiHq19-38" target="syqivPkIFeEdkYDiHq19-40" edge="1">
          <mxGeometry relative="1" as="geometry" />
        </mxCell>
        <mxCell id="syqivPkIFeEdkYDiHq19-59" value="" style="edgeStyle=orthogonalEdgeStyle;rounded=0;orthogonalLoop=1;jettySize=auto;html=1;" parent="1" source="syqivPkIFeEdkYDiHq19-38" edge="1">
          <mxGeometry relative="1" as="geometry">
            <mxPoint x="-180" y="740" as="targetPoint" />
          </mxGeometry>
        </mxCell>
        <mxCell id="syqivPkIFeEdkYDiHq19-38" value="15天即将到期" style="whiteSpace=wrap;html=1;" parent="1" vertex="1">
          <mxGeometry x="100" y="720" width="100" height="40" as="geometry" />
        </mxCell>
        <mxCell id="syqivPkIFeEdkYDiHq19-43" value="" style="edgeStyle=orthogonalEdgeStyle;rounded=0;orthogonalLoop=1;jettySize=auto;html=1;" parent="1" source="syqivPkIFeEdkYDiHq19-40" target="syqivPkIFeEdkYDiHq19-42" edge="1">
          <mxGeometry relative="1" as="geometry" />
        </mxCell>
        <mxCell id="syqivPkIFeEdkYDiHq19-40" value="服务到期" style="whiteSpace=wrap;html=1;" parent="1" vertex="1">
          <mxGeometry x="250" y="710" width="60" height="60" as="geometry" />
        </mxCell>
        <mxCell id="syqivPkIFeEdkYDiHq19-69" value="" style="edgeStyle=orthogonalEdgeStyle;rounded=0;orthogonalLoop=1;jettySize=auto;html=1;" parent="1" source="syqivPkIFeEdkYDiHq19-42" target="syqivPkIFeEdkYDiHq19-44" edge="1">
          <mxGeometry relative="1" as="geometry" />
        </mxCell>
        <mxCell id="syqivPkIFeEdkYDiHq19-42" value="用户续费" style="whiteSpace=wrap;html=1;" parent="1" vertex="1">
          <mxGeometry x="360" y="710" width="80" height="60" as="geometry" />
        </mxCell>
        <mxCell id="syqivPkIFeEdkYDiHq19-63" value="支付" style="edgeStyle=orthogonalEdgeStyle;rounded=0;orthogonalLoop=1;jettySize=auto;html=1;" parent="1" source="syqivPkIFeEdkYDiHq19-44" edge="1">
          <mxGeometry relative="1" as="geometry">
            <mxPoint x="740" y="740" as="targetPoint" />
          </mxGeometry>
        </mxCell>
        <mxCell id="syqivPkIFeEdkYDiHq19-44" value="百度商城" style="whiteSpace=wrap;html=1;" parent="1" vertex="1">
          <mxGeometry x="490" y="710" width="90" height="60" as="geometry" />
        </mxCell>
        <mxCell id="syqivPkIFeEdkYDiHq19-72" value="" style="edgeStyle=orthogonalEdgeStyle;rounded=0;orthogonalLoop=1;jettySize=auto;html=1;" parent="1" source="syqivPkIFeEdkYDiHq19-45" edge="1">
          <mxGeometry relative="1" as="geometry">
            <mxPoint x="750" y="840" as="targetPoint" />
          </mxGeometry>
        </mxCell>
        <mxCell id="syqivPkIFeEdkYDiHq19-73" value="同步支付成功订单" style="edgeLabel;html=1;align=center;verticalAlign=middle;resizable=0;points=[];" parent="syqivPkIFeEdkYDiHq19-72" vertex="1" connectable="0">
          <mxGeometry x="-0.1232" y="-1" relative="1" as="geometry">
            <mxPoint as="offset" />
          </mxGeometry>
        </mxCell>
        <mxCell id="syqivPkIFeEdkYDiHq19-77" value="" style="edgeStyle=orthogonalEdgeStyle;rounded=0;orthogonalLoop=1;jettySize=auto;html=1;" parent="1" source="syqivPkIFeEdkYDiHq19-45" edge="1">
          <mxGeometry relative="1" as="geometry">
            <mxPoint x="600" y="790" as="targetPoint" />
            <Array as="points">
              <mxPoint x="510" y="840" />
              <mxPoint x="510" y="790" />
            </Array>
          </mxGeometry>
        </mxCell>
        <mxCell id="syqivPkIFeEdkYDiHq19-78" value="调用百度激活云端" style="edgeLabel;html=1;align=center;verticalAlign=middle;resizable=0;points=[];" parent="syqivPkIFeEdkYDiHq19-77" vertex="1" connectable="0">
          <mxGeometry x="0.3012" y="-3" relative="1" as="geometry">
            <mxPoint as="offset" />
          </mxGeometry>
        </mxCell>
        <mxCell id="syqivPkIFeEdkYDiHq19-45" value="客户&lt;br&gt;商城" style="whiteSpace=wrap;html=1;" parent="1" vertex="1">
          <mxGeometry x="354" y="810" width="120" height="60" as="geometry" />
        </mxCell>
        <mxCell id="syqivPkIFeEdkYDiHq19-50" value="" style="edgeStyle=orthogonalEdgeStyle;rounded=0;orthogonalLoop=1;jettySize=auto;html=1;" parent="1" source="syqivPkIFeEdkYDiHq19-48" edge="1">
          <mxGeometry relative="1" as="geometry">
            <mxPoint x="750" y="872" as="targetPoint" />
            <Array as="points">
              <mxPoint x="750" y="480" />
              <mxPoint x="750" y="480" />
            </Array>
          </mxGeometry>
        </mxCell>
        <mxCell id="syqivPkIFeEdkYDiHq19-48" value="百度订单云端" style="whiteSpace=wrap;html=1;" parent="1" vertex="1">
          <mxGeometry x="690" y="40" width="120" height="60" as="geometry" />
        </mxCell>
        <mxCell id="syqivPkIFeEdkYDiHq19-66" value="" style="endArrow=classic;html=1;rounded=0;" parent="1" edge="1">
          <mxGeometry width="50" height="50" relative="1" as="geometry">
            <mxPoint x="750" y="410" as="sourcePoint" />
            <mxPoint x="610" y="410" as="targetPoint" />
          </mxGeometry>
        </mxCell>
        <mxCell id="syqivPkIFeEdkYDiHq19-74" value="支付成功" style="edgeLabel;html=1;align=center;verticalAlign=middle;resizable=0;points=[];" parent="syqivPkIFeEdkYDiHq19-66" vertex="1" connectable="0">
          <mxGeometry x="-0.3286" y="1" relative="1" as="geometry">
            <mxPoint as="offset" />
          </mxGeometry>
        </mxCell>
        <mxCell id="syqivPkIFeEdkYDiHq19-67" value="" style="endArrow=classic;html=1;rounded=0;entryX=1;entryY=0.5;entryDx=0;entryDy=0;" parent="1" target="syqivPkIFeEdkYDiHq19-31" edge="1">
          <mxGeometry width="50" height="50" relative="1" as="geometry">
            <mxPoint x="590" y="650" as="sourcePoint" />
            <mxPoint x="300" y="390" as="targetPoint" />
          </mxGeometry>
        </mxCell>
        <mxCell id="syqivPkIFeEdkYDiHq19-75" value="续费成功刷新最新激活时间" style="edgeLabel;html=1;align=center;verticalAlign=middle;resizable=0;points=[];" parent="syqivPkIFeEdkYDiHq19-67" vertex="1" connectable="0">
          <mxGeometry x="-0.5895" y="-1" relative="1" as="geometry">
            <mxPoint as="offset" />
          </mxGeometry>
        </mxCell>
        <mxCell id="syqivPkIFeEdkYDiHq19-79" value="比对订单" style="endArrow=classic;html=1;rounded=0;" parent="1" edge="1">
          <mxGeometry width="50" height="50" relative="1" as="geometry">
            <mxPoint x="600" y="790" as="sourcePoint" />
            <mxPoint x="750" y="790" as="targetPoint" />
          </mxGeometry>
        </mxCell>
        <mxCell id="syqivPkIFeEdkYDiHq19-81" value="比对订单成功" style="endArrow=classic;html=1;rounded=0;" parent="1" edge="1">
          <mxGeometry width="50" height="50" relative="1" as="geometry">
            <mxPoint x="750" y="650" as="sourcePoint" />
            <mxPoint x="600" y="650" as="targetPoint" />
          </mxGeometry>
        </mxCell>
        <mxCell id="syqivPkIFeEdkYDiHq19-82" value="" style="endArrow=classic;html=1;rounded=0;" parent="1" edge="1">
          <mxGeometry width="50" height="50" relative="1" as="geometry">
            <mxPoint x="530" y="70" as="sourcePoint" />
            <mxPoint x="220" y="70" as="targetPoint" />
          </mxGeometry>
        </mxCell>
      </root>
    </mxGraphModel>
  </diagram>
</mxfile>
